<mxfile host="app.diagrams.net" modified="2020-07-01T23:44:55.473Z" agent="5.0 (Macintosh; Intel Mac OS X 10_15_3) AppleWebKit/537.36 (KHTML, like Gecko) Chrome/83.0.4103.97 Safari/537.36" etag="1crYxjrulK513_u2uCKK" version="13.3.6" type="github">
  <diagram id="qQnDsApoSpHMc4THVfdE" name="Page-1">
    <mxGraphModel dx="946" dy="554" grid="1" gridSize="10" guides="1" tooltips="1" connect="1" arrows="1" fold="1" page="1" pageScale="1" pageWidth="850" pageHeight="1100" math="0" shadow="0">
      <root>
        <mxCell id="0" />
        <mxCell id="1" parent="0" />
        <mxCell id="y13b2MK2XemFfw-FXZ8G-1" value="" style="group" parent="1" vertex="1" connectable="0">
          <mxGeometry x="80" y="80" width="650" height="530" as="geometry" />
        </mxCell>
        <mxCell id="y13b2MK2XemFfw-FXZ8G-2" value="" style="endArrow=none;html=1;" parent="y13b2MK2XemFfw-FXZ8G-1" edge="1">
          <mxGeometry width="50" height="50" relative="1" as="geometry">
            <mxPoint y="380" as="sourcePoint" />
            <mxPoint as="targetPoint" />
          </mxGeometry>
        </mxCell>
        <mxCell id="y13b2MK2XemFfw-FXZ8G-3" value="" style="endArrow=none;html=1;" parent="y13b2MK2XemFfw-FXZ8G-1" edge="1">
          <mxGeometry width="50" height="50" relative="1" as="geometry">
            <mxPoint x="600" y="380" as="sourcePoint" />
            <mxPoint y="380" as="targetPoint" />
          </mxGeometry>
        </mxCell>
        <mxCell id="y13b2MK2XemFfw-FXZ8G-4" value="" style="endArrow=none;html=1;" parent="y13b2MK2XemFfw-FXZ8G-1" edge="1">
          <mxGeometry width="50" height="50" relative="1" as="geometry">
            <mxPoint x="600" y="380" as="sourcePoint" />
            <mxPoint x="600" y="30" as="targetPoint" />
          </mxGeometry>
        </mxCell>
        <mxCell id="y13b2MK2XemFfw-FXZ8G-5" value="" style="endArrow=none;html=1;" parent="y13b2MK2XemFfw-FXZ8G-1" edge="1">
          <mxGeometry width="50" height="50" relative="1" as="geometry">
            <mxPoint x="260" as="sourcePoint" />
            <mxPoint as="targetPoint" />
          </mxGeometry>
        </mxCell>
        <mxCell id="y13b2MK2XemFfw-FXZ8G-6" value="" style="endArrow=none;html=1;" parent="y13b2MK2XemFfw-FXZ8G-1" edge="1">
          <mxGeometry width="50" height="50" relative="1" as="geometry">
            <mxPoint x="600" y="30" as="sourcePoint" />
            <mxPoint x="260" y="30" as="targetPoint" />
          </mxGeometry>
        </mxCell>
        <mxCell id="y13b2MK2XemFfw-FXZ8G-7" value="" style="endArrow=none;html=1;" parent="y13b2MK2XemFfw-FXZ8G-1" edge="1">
          <mxGeometry width="50" height="50" relative="1" as="geometry">
            <mxPoint x="260" y="30" as="sourcePoint" />
            <mxPoint x="260" as="targetPoint" />
          </mxGeometry>
        </mxCell>
        <mxCell id="y13b2MK2XemFfw-FXZ8G-8" value="" style="shape=link;html=1;" parent="y13b2MK2XemFfw-FXZ8G-1" edge="1">
          <mxGeometry width="50" height="50" relative="1" as="geometry">
            <mxPoint x="90" y="400" as="sourcePoint" />
            <mxPoint x="90" y="380" as="targetPoint" />
          </mxGeometry>
        </mxCell>
        <mxCell id="y13b2MK2XemFfw-FXZ8G-9" value="" style="shape=link;html=1;" parent="y13b2MK2XemFfw-FXZ8G-1" edge="1">
          <mxGeometry width="50" height="50" relative="1" as="geometry">
            <mxPoint x="210" y="400" as="sourcePoint" />
            <mxPoint x="210" y="380" as="targetPoint" />
          </mxGeometry>
        </mxCell>
        <mxCell id="y13b2MK2XemFfw-FXZ8G-10" value="" style="shape=link;html=1;" parent="y13b2MK2XemFfw-FXZ8G-1" edge="1">
          <mxGeometry width="50" height="50" relative="1" as="geometry">
            <mxPoint x="580" y="27.33331298828125" as="sourcePoint" />
            <mxPoint x="580" as="targetPoint" />
          </mxGeometry>
        </mxCell>
        <mxCell id="y13b2MK2XemFfw-FXZ8G-11" value="" style="shape=link;html=1;" parent="y13b2MK2XemFfw-FXZ8G-1" edge="1">
          <mxGeometry width="50" height="50" relative="1" as="geometry">
            <mxPoint x="380" y="30" as="sourcePoint" />
            <mxPoint x="380" as="targetPoint" />
          </mxGeometry>
        </mxCell>
        <mxCell id="y13b2MK2XemFfw-FXZ8G-32" value="CHAIR" style="rounded=0;whiteSpace=wrap;html=1;fillColor=#f8cecc;strokeColor=#b85450;rotation=-44;" parent="y13b2MK2XemFfw-FXZ8G-1" vertex="1">
          <mxGeometry x="20" y="22" width="70" height="73" as="geometry" />
        </mxCell>
        <mxCell id="y13b2MK2XemFfw-FXZ8G-33" value="FOOTREST" style="rounded=0;whiteSpace=wrap;html=1;fillColor=#f8cecc;strokeColor=#b85450;rotation=-44;" parent="y13b2MK2XemFfw-FXZ8G-1" vertex="1">
          <mxGeometry x="80" y="80" width="50" height="45" as="geometry" />
        </mxCell>
        <mxCell id="y13b2MK2XemFfw-FXZ8G-34" value="CONSOLE" style="rounded=0;whiteSpace=wrap;html=1;fillColor=#a0522d;strokeColor=#6D1F00;fontColor=#ffffff;rotation=90;" parent="y13b2MK2XemFfw-FXZ8G-1" vertex="1">
          <mxGeometry x="500" y="135" width="160" height="40" as="geometry" />
        </mxCell>
        <mxCell id="y13b2MK2XemFfw-FXZ8G-18" value="&lt;font color=&quot;#ffffff&quot;&gt;BOOKCASE&lt;/font&gt;" style="rounded=0;whiteSpace=wrap;html=1;fillColor=#000000;rotation=-90;" parent="y13b2MK2XemFfw-FXZ8G-1" vertex="1">
          <mxGeometry x="-20" y="154" width="80" height="40" as="geometry" />
        </mxCell>
        <mxCell id="y13b2MK2XemFfw-FXZ8G-36" value="CORNER&lt;br&gt;THING" style="rounded=0;whiteSpace=wrap;html=1;fillColor=#f8cecc;strokeColor=#b85450;" parent="y13b2MK2XemFfw-FXZ8G-1" vertex="1">
          <mxGeometry x="470" y="293" width="120" height="80" as="geometry" />
        </mxCell>
        <mxCell id="y13b2MK2XemFfw-FXZ8G-13" value="COUCH" style="rounded=0;whiteSpace=wrap;html=1;fillColor=#f8cecc;strokeColor=#b85450;rotation=90;" parent="y13b2MK2XemFfw-FXZ8G-1" vertex="1">
          <mxGeometry x="195" y="107" width="252" height="116" as="geometry" />
        </mxCell>
        <mxCell id="RX5vi_CDI0m9ifhzFhI4-1" value="KIDNEY DESK" style="rounded=0;whiteSpace=wrap;html=1;fillColor=#d5e8d4;strokeColor=#82b366;rotation=-90;" vertex="1" parent="y13b2MK2XemFfw-FXZ8G-1">
          <mxGeometry x="-33" y="256" width="157.18" height="81.5" as="geometry" />
        </mxCell>
        <mxCell id="y13b2MK2XemFfw-FXZ8G-15" value="ENDTABLE" style="rounded=0;whiteSpace=wrap;html=1;fillColor=#a0522d;strokeColor=#6D1F00;fontColor=#ffffff;" parent="1" vertex="1">
          <mxGeometry x="80" y="760" width="80" height="80" as="geometry" />
        </mxCell>
        <mxCell id="y13b2MK2XemFfw-FXZ8G-16" value="ENDTABLE" style="rounded=0;whiteSpace=wrap;html=1;fillColor=#a0522d;strokeColor=#6D1F00;fontColor=#ffffff;" parent="1" vertex="1">
          <mxGeometry x="200" y="760" width="80" height="80" as="geometry" />
        </mxCell>
        <mxCell id="y13b2MK2XemFfw-FXZ8G-17" value="COFFEE TABLE" style="rounded=0;whiteSpace=wrap;html=1;fillColor=#a0522d;strokeColor=#6D1F00;fontColor=#ffffff;" parent="1" vertex="1">
          <mxGeometry x="320" y="760" width="160" height="80" as="geometry" />
        </mxCell>
        <mxCell id="y13b2MK2XemFfw-FXZ8G-19" value="LAMP" style="rounded=0;whiteSpace=wrap;html=1;fillColor=#f5f5f5;strokeColor=#666666;fontColor=#333333;" parent="1" vertex="1">
          <mxGeometry x="240" y="880" width="30" height="30" as="geometry" />
        </mxCell>
        <mxCell id="y13b2MK2XemFfw-FXZ8G-21" value="CONSOLE" style="rounded=0;whiteSpace=wrap;html=1;fillColor=#a0522d;strokeColor=#6D1F00;fontColor=#ffffff;" parent="1" vertex="1">
          <mxGeometry x="80" y="940" width="160" height="40" as="geometry" />
        </mxCell>
        <mxCell id="y13b2MK2XemFfw-FXZ8G-22" value="" style="group;container=1;" parent="1" vertex="1" connectable="0">
          <mxGeometry x="440" y="500" width="300" height="240" as="geometry" />
        </mxCell>
        <mxCell id="y13b2MK2XemFfw-FXZ8G-25" value="" style="group" parent="y13b2MK2XemFfw-FXZ8G-22" vertex="1" connectable="0">
          <mxGeometry width="300" height="240" as="geometry" />
        </mxCell>
        <mxCell id="y13b2MK2XemFfw-FXZ8G-23" value="COUCH" style="rounded=0;whiteSpace=wrap;html=1;fillColor=#f5f5f5;strokeColor=#666666;fontColor=#333333;" parent="y13b2MK2XemFfw-FXZ8G-25" vertex="1">
          <mxGeometry y="120" width="300" height="120" as="geometry" />
        </mxCell>
        <mxCell id="y13b2MK2XemFfw-FXZ8G-24" value="" style="rounded=0;whiteSpace=wrap;html=1;fillColor=#f5f5f5;strokeColor=#666666;fontColor=#333333;" parent="y13b2MK2XemFfw-FXZ8G-25" vertex="1">
          <mxGeometry width="110" height="240" as="geometry" />
        </mxCell>
        <mxCell id="y13b2MK2XemFfw-FXZ8G-26" value="WHITEBOARD" style="rounded=0;whiteSpace=wrap;html=1;" parent="1" vertex="1">
          <mxGeometry x="305" y="460" width="235" height="10" as="geometry" />
        </mxCell>
        <mxCell id="y13b2MK2XemFfw-FXZ8G-28" value="HUTCH" style="rounded=0;whiteSpace=wrap;html=1;fillColor=#a0522d;strokeColor=#6D1F00;fontColor=#ffffff;" parent="1" vertex="1">
          <mxGeometry x="560" y="790" width="80" height="70" as="geometry" />
        </mxCell>
        <mxCell id="y13b2MK2XemFfw-FXZ8G-20" value="COFFEE TABLE" style="ellipse;whiteSpace=wrap;html=1;fillColor=#a0522d;strokeColor=#6D1F00;fontColor=#ffffff;rotation=90;" parent="1" vertex="1">
          <mxGeometry x="740" y="315.5" width="155" height="90" as="geometry" />
        </mxCell>
        <mxCell id="y13b2MK2XemFfw-FXZ8G-30" value="CONSOLE" style="rounded=0;whiteSpace=wrap;html=1;fillColor=#f8cecc;strokeColor=#b85450;" parent="1" vertex="1">
          <mxGeometry x="168" y="20" width="160" height="30" as="geometry" />
        </mxCell>
      </root>
    </mxGraphModel>
  </diagram>
</mxfile>
